<?xml version="1.0" encoding="utf-8"?>
<!-- Generator: Adobe Illustrator 19.2.1, SVG Export Plug-In . SVG Version: 6.00 Build 0)  -->
<svg version="1.1" id="Capa_1" xmlns="http://www.w3.org/2000/svg" xmlns:xlink="http://www.w3.org/1999/xlink" x="0px" y="0px"
	 viewBox="0 0 512 512" style="enable-background:new 0 0 512 512;" xml:space="preserve">
<style type="text/css">
	.st0{fill:#FFFFFF;}
</style>
<title></title>
<g id="icomoon-ignore">
</g>
<path class="st0" d="M262.6,127.5c40.2,0,45,0.2,60.8,0.9c14.7,0.6,22.6,3.1,27.9,5.2c7,2.7,12.1,6,17.3,11.2
	c5.3,5.3,8.5,10.3,11.3,17.3c2.1,5.3,4.5,13.3,5.2,27.9c0.7,15.9,0.9,20.6,0.9,60.8s-0.2,45-0.9,60.8c-0.6,14.7-3.1,22.6-5.2,27.9
	c-2.7,7-6,12.1-11.2,17.3c-5.3,5.3-10.3,8.5-17.3,11.3c-5.3,2.1-13.3,4.5-27.9,5.2c-15.9,0.7-20.6,0.9-60.8,0.9s-45-0.2-60.8-0.9
	c-14.7-0.6-22.6-3.1-27.9-5.2c-7-2.7-12.1-6-17.3-11.2c-5.3-5.3-8.5-10.3-11.3-17.3c-2.1-5.3-4.5-13.3-5.2-27.9
	c-0.7-15.9-0.9-20.6-0.9-60.8s0.2-45,0.9-60.8c0.6-14.7,3.1-22.6,5.2-27.9c2.7-7,6-12.1,11.2-17.3c5.3-5.3,10.3-8.5,17.3-11.3
	c5.3-2.1,13.3-4.5,27.9-5.2C217.6,127.7,222.4,127.5,262.6,127.5z M262.6,100.4c-40.9,0-46,0.2-62.1,0.9c-16,0.7-27,3.3-36.5,7
	c-9.9,3.9-18.4,9-26.7,17.4c-8.4,8.4-13.5,16.8-17.4,26.6c-3.7,9.6-6.3,20.5-7,36.5c-0.7,16.1-0.9,21.2-0.9,62.1s0.2,46,0.9,62.1
	c0.7,16,3.3,27,7,36.5c3.9,9.9,9,18.4,17.4,26.7c8.4,8.4,16.8,13.5,26.6,17.4c9.6,3.7,20.5,6.3,36.5,7c16.1,0.7,21.2,0.9,62.1,0.9
	s46-0.2,62.1-0.9c16-0.7,27-3.3,36.5-7c9.9-3.8,18.3-9,26.6-17.4c8.4-8.4,13.5-16.8,17.4-26.6c3.7-9.6,6.3-20.5,7-36.5
	c0.7-16.1,0.9-21.2,0.9-62.1s-0.2-46-0.9-62.1c-0.7-16-3.3-27-7-36.5c-3.7-10-8.8-18.4-17.2-26.8c-8.4-8.4-16.8-13.5-26.6-17.4
	c-9.6-3.7-20.5-6.3-36.5-7C308.6,100.6,303.5,100.4,262.6,100.4L262.6,100.4z"/>
<path class="st0" d="M262.6,173.6c-42.7,0-77.4,34.6-77.4,77.4s34.6,77.4,77.4,77.4s77.4-34.6,77.4-77.4S305.3,173.6,262.6,173.6z
	 M262.6,301.2c-27.7,0-50.2-22.5-50.2-50.2s22.5-50.2,50.2-50.2c27.7,0,50.2,22.5,50.2,50.2S290.3,301.2,262.6,301.2L262.6,301.2z"
	/>
<path class="st0" d="M361.1,170.6c0,10-8.1,18.1-18.1,18.1s-18.1-8.1-18.1-18.1s8.1-18.1,18.1-18.1
	C353,152.5,361.1,160.6,361.1,170.6z"/>
</svg>
