<svg width="40" height="41" viewBox="0 0 40 41" fill="none" xmlns="http://www.w3.org/2000/svg">
<g id="Group 8">
<path id="Fill 1" fill-rule="evenodd" clip-rule="evenodd" d="M29.2021 39.6059H11.1657C5.20962 39.6059 0.381104 34.7774 0.381104 28.821V10.785C0.381104 4.82851 5.20962 0 11.1657 0H29.2021C35.1581 0 39.9866 4.82851 39.9866 10.785V28.821C39.9866 34.7774 35.1581 39.6059 29.2021 39.6059Z" fill="#4E05B2"/>
<path id="Fill 6" fill-rule="evenodd" clip-rule="evenodd" d="M24.9516 25.1035C24.9516 21.7811 23.9627 20.9506 20.5615 20.9114H16.1318V28.8211H20.7195C24.0027 28.8211 24.9516 28.1487 24.9516 25.1035ZM20.2058 9.99578H16.1318V16.917H20.5219C23.4486 16.917 24.3583 16.2049 24.3583 13.3966C24.3583 10.6283 23.3694 9.99578 20.2058 9.99578ZM31.0023 26.2504C31.0023 31.8663 28.274 33.3692 21.748 33.3692C16.5274 33.3692 13.6799 33.3296 10.2395 33.0528V5.7637C13.3243 5.48687 15.8949 5.44727 20.4827 5.44727C27.6011 5.44727 30.1326 6.95024 30.1326 12.5661C30.1326 16.4817 28.7484 18.4988 25.3468 18.8152V18.9732C29.5393 19.3292 31.0023 21.8999 31.0023 26.2504Z" fill="white"/>
</g>
</svg>
