<svg width="89" height="91" viewBox="0 0 89 91" fill="none" xmlns="http://www.w3.org/2000/svg">
<path id="face" fill-rule="evenodd" clip-rule="evenodd" d="M9.448 40.897H8.371C5.41 40.897 3 43.306 3 46.268V51.241C3 54.202 5.41 56.611 8.371 56.611H10.742L10.378 53.097L9.448 40.897ZM75.772 56.611H79.807C82.768 56.611 85.178 54.202 85.178 51.241V46.268C85.178 43.306 82.768 40.897 79.807 40.897H78.767L77.889 52.543C77.828 53.362 77.119 53.985 76.283 53.926C75.88 53.895 75.517 53.711 75.255 53.408C74.994 53.104 74.866 52.716 74.896 52.316L76.104 36.292C77.154 26.138 73.068 16.234 65.177 9.783C61.434 6.725 56.969 4.594 52.263 3.624C50.258 3.21 48.191 3 46.12 3H42.09C26.267 3 13.052 15.341 12.005 31.095C11.92 32.36 11.917 33.656 11.994 34.946C12.021 35.378 12.057 35.814 12.102 36.251L13.367 52.828L14.118 60.079C15.712 75.498 28.604 87.125 44.104 87.125C59.605 87.125 72.498 75.498 74.093 60.079L74.283 58.234L74.272 58.111C74.272 57.463 74.695 56.894 75.325 56.695L75.479 56.66C75.4885 56.6576 75.4979 56.6553 75.5072 56.653C75.5934 56.6313 75.6746 56.611 75.772 56.611ZM78.992 37.897H79.807C84.423 37.897 88.178 41.652 88.178 46.268V51.241C88.178 55.856 84.423 59.611 79.807 59.611H77.158L77.077 60.387C75.323 77.34 61.148 90.125 44.105 90.125C27.062 90.125 12.887 77.34 11.132 60.387L11.052 59.611H8.371C3.755 59.611 0 55.856 0 51.241V46.268C0 41.652 3.755 37.897 8.371 37.897H9.219L9.114 36.519C9.068 36.081 9.03 35.604 9 35.129C8.915 33.718 8.918 32.294 9.011 30.897C10.163 13.571 24.693 0 42.09 0H46.12C48.394 0 50.665 0.23 52.868 0.685C58.048 1.754 62.96 4.096 67.075 7.46C75.751 14.552 80.243 25.43 79.093 36.559L78.992 37.897ZM24.7052 45.1619C24.7052 43.8809 25.7472 42.8389 27.0282 42.8389C28.3092 42.8389 29.3512 43.8809 29.3512 45.1619C29.3512 46.4429 28.3092 47.4849 27.0282 47.4849C25.7472 47.4849 24.7052 46.4429 24.7052 45.1619ZM58.8585 45.1619C58.8585 43.8809 59.9005 42.8389 61.1815 42.8389C62.4625 42.8389 63.5045 43.8809 63.5045 45.1619C63.5045 46.4429 62.4625 47.4849 61.1815 47.4849C59.9005 47.4849 58.8585 46.4429 58.8585 45.1619ZM47.6483 60.7573C47.6483 61.5843 46.9753 62.2573 46.1483 62.2573H43.3283C41.9973 62.2573 40.7163 61.6953 39.8163 60.7143C38.9153 59.7323 38.4643 58.4073 38.5793 57.0823L39.7073 43.9733C39.7413 43.5653 39.9393 43.1843 40.2493 42.9303C40.5543 42.6793 40.9453 42.5673 41.3413 42.6093C41.7283 42.6413 42.0903 42.8293 42.3483 43.1363C42.6063 43.4433 42.7303 43.8323 42.6953 44.2313L41.5673 57.3403C41.5243 57.8393 41.6883 58.3163 42.0263 58.6843C42.3643 59.0543 42.8263 59.2573 43.3283 59.2573H46.1483C46.9753 59.2573 47.6483 59.9303 47.6483 60.7573Z" fill="#A9A9A9"/>
</svg>
