<svg width="758" height="100" viewBox="0 0 758 100" fill="none" xmlns="http://www.w3.org/2000/svg">
<path d="M21.8394 16.83V33.77H55.8294V50.6H21.8394V77H0.059375V-5.24521e-06H60.4494V16.83H21.8394ZM98.2765 77.99C91.8965 77.99 86.1398 76.67 81.0065 74.03C75.8732 71.39 71.8398 67.7233 68.9065 63.03C66.0465 58.3367 64.6165 53.02 64.6165 47.08C64.6165 41.2133 66.0465 35.9333 68.9065 31.24C71.8398 26.5467 75.8365 22.9167 80.8965 20.35C86.0298 17.71 91.8232 16.39 98.2765 16.39C104.73 16.39 110.523 17.71 115.656 20.35C120.79 22.9167 124.786 26.5467 127.646 31.24C130.506 35.86 131.936 41.14 131.936 47.08C131.936 53.02 130.506 58.3367 127.646 63.03C124.786 67.7233 120.79 71.39 115.656 74.03C110.523 76.67 104.73 77.99 98.2765 77.99ZM98.2765 61.38C101.943 61.38 104.95 60.1333 107.296 57.64C109.643 55.0733 110.816 51.5533 110.816 47.08C110.816 42.68 109.643 39.2333 107.296 36.74C104.95 34.2467 101.943 33 98.2765 33C94.6098 33 91.6032 34.2467 89.2565 36.74C86.9098 39.2333 85.7365 42.68 85.7365 47.08C85.7365 51.5533 86.9098 55.0733 89.2565 57.64C91.6032 60.1333 94.6098 61.38 98.2765 61.38ZM161.528 24.53C163.655 21.8167 166.405 19.8 169.778 18.48C173.225 17.0867 177.148 16.39 181.548 16.39V35.2C179.642 34.98 178.065 34.87 176.818 34.87C172.345 34.87 168.825 36.08 166.258 38.5C163.765 40.92 162.518 44.6233 162.518 49.61V77H141.618V17.38H161.528V24.53ZM283.339 47.3C283.339 47.4467 283.229 49.17 283.009 52.47H239.669C240.549 55.55 242.236 57.9333 244.729 59.62C247.296 61.2333 250.486 62.04 254.299 62.04C257.159 62.04 259.616 61.6367 261.669 60.83C263.796 60.0233 265.923 58.7033 268.049 56.87L279.049 68.31C273.256 74.7633 264.786 77.99 253.639 77.99C246.673 77.99 240.549 76.67 235.269 74.03C229.989 71.39 225.883 67.7233 222.949 63.03C220.089 58.3367 218.659 53.02 218.659 47.08C218.659 41.2133 220.053 35.97 222.839 31.35C225.699 26.6567 229.623 22.99 234.609 20.35C239.596 17.71 245.206 16.39 251.439 16.39C257.379 16.39 262.769 17.6367 267.609 20.13C272.449 22.55 276.263 26.1067 279.049 30.8C281.909 35.42 283.339 40.92 283.339 47.3ZM251.549 31.24C248.323 31.24 245.609 32.1567 243.409 33.99C241.283 35.8233 239.926 38.3167 239.339 41.47H263.759C263.173 38.3167 261.779 35.8233 259.579 33.99C257.453 32.1567 254.776 31.24 251.549 31.24ZM354.711 17.38L330.071 77H308.511L283.981 17.38H305.431L319.731 53.79L334.801 17.38H354.711ZM419.443 47.3C419.443 47.4467 419.333 49.17 419.113 52.47H375.773C376.653 55.55 378.34 57.9333 380.833 59.62C383.4 61.2333 386.59 62.04 390.403 62.04C393.263 62.04 395.72 61.6367 397.773 60.83C399.9 60.0233 402.026 58.7033 404.153 56.87L415.153 68.31C409.36 74.7633 400.89 77.99 389.743 77.99C382.776 77.99 376.653 76.67 371.373 74.03C366.093 71.39 361.986 67.7233 359.053 63.03C356.193 58.3367 354.763 53.02 354.763 47.08C354.763 41.2133 356.156 35.97 358.943 31.35C361.803 26.6567 365.726 22.99 370.713 20.35C375.7 17.71 381.31 16.39 387.543 16.39C393.483 16.39 398.873 17.6367 403.713 20.13C408.553 22.55 412.366 26.1067 415.153 30.8C418.013 35.42 419.443 40.92 419.443 47.3ZM387.653 31.24C384.426 31.24 381.713 32.1567 379.513 33.99C377.386 35.8233 376.03 38.3167 375.443 41.47H399.863C399.276 38.3167 397.883 35.8233 395.683 33.99C393.556 32.1567 390.88 31.24 387.653 31.24ZM448.989 24.53C451.116 21.8167 453.866 19.8 457.239 18.48C460.686 17.0867 464.609 16.39 469.009 16.39V35.2C467.102 34.98 465.526 34.87 464.279 34.87C459.806 34.87 456.286 36.08 453.719 38.5C451.226 40.92 449.979 44.6233 449.979 49.61V77H429.079V17.38H448.989V24.53ZM542.27 17.38L516.53 79.42C513.523 86.7533 509.857 91.8867 505.53 94.82C501.203 97.8267 495.923 99.33 489.69 99.33C486.537 99.33 483.347 98.8167 480.12 97.79C476.967 96.8367 474.4 95.5533 472.42 93.94L479.68 79.31C480.853 80.41 482.247 81.2533 483.86 81.84C485.547 82.5 487.233 82.83 488.92 82.83C490.9 82.83 492.513 82.4267 493.76 81.62C495.08 80.8133 496.18 79.53 497.06 77.77L471.54 17.38H492.99L507.62 53.79L522.36 17.38H542.27ZM575.982 77.99C569.602 77.99 563.845 76.67 558.712 74.03C553.578 71.39 549.545 67.7233 546.612 63.03C543.752 58.3367 542.322 53.02 542.322 47.08C542.322 41.2133 543.752 35.9333 546.612 31.24C549.545 26.5467 553.542 22.9167 558.602 20.35C563.735 17.71 569.528 16.39 575.982 16.39C582.435 16.39 588.228 17.71 593.362 20.35C598.495 22.9167 602.492 26.5467 605.352 31.24C608.212 35.86 609.642 41.14 609.642 47.08C609.642 53.02 608.212 58.3367 605.352 63.03C602.492 67.7233 598.495 71.39 593.362 74.03C588.228 76.67 582.435 77.99 575.982 77.99ZM575.982 61.38C579.648 61.38 582.655 60.1333 585.002 57.64C587.348 55.0733 588.522 51.5533 588.522 47.08C588.522 42.68 587.348 39.2333 585.002 36.74C582.655 34.2467 579.648 33 575.982 33C572.315 33 569.308 34.2467 566.962 36.74C564.615 39.2333 563.442 42.68 563.442 47.08C563.442 51.5533 564.615 55.0733 566.962 57.64C569.308 60.1333 572.315 61.38 575.982 61.38ZM658.153 16.39C665.56 16.39 671.5 18.59 675.973 22.99C680.52 27.39 682.793 34.0267 682.793 42.9V77H661.893V46.31C661.893 38.17 658.63 34.1 652.103 34.1C648.51 34.1 645.613 35.2733 643.413 37.62C641.287 39.9667 640.223 43.4867 640.223 48.18V77H619.323V17.38H639.233V23.87C641.58 21.45 644.367 19.6167 647.593 18.37C650.82 17.05 654.34 16.39 658.153 16.39ZM757.714 47.3C757.714 47.4467 757.604 49.17 757.384 52.47H714.044C714.924 55.55 716.611 57.9333 719.104 59.62C721.671 61.2333 724.861 62.04 728.674 62.04C731.534 62.04 733.991 61.6367 736.044 60.83C738.171 60.0233 740.298 58.7033 742.424 56.87L753.424 68.31C747.631 74.7633 739.161 77.99 728.014 77.99C721.048 77.99 714.924 76.67 709.644 74.03C704.364 71.39 700.258 67.7233 697.324 63.03C694.464 58.3367 693.034 53.02 693.034 47.08C693.034 41.2133 694.428 35.97 697.214 31.35C700.074 26.6567 703.998 22.99 708.984 20.35C713.971 17.71 719.581 16.39 725.814 16.39C731.754 16.39 737.144 17.6367 741.984 20.13C746.824 22.55 750.638 26.1067 753.424 30.8C756.284 35.42 757.714 40.92 757.714 47.3ZM725.924 31.24C722.698 31.24 719.984 32.1567 717.784 33.99C715.658 35.8233 714.301 38.3167 713.714 41.47H738.134C737.548 38.3167 736.154 35.8233 733.954 33.99C731.828 32.1567 729.151 31.24 725.924 31.24Z" fill="white"/>
</svg>
