<svg width="634" height="214" viewBox="0 0 634 214" fill="none" xmlns="http://www.w3.org/2000/svg">
<path d="M64.88 36.85C69.28 38.39 72.7267 40.81 75.22 44.11C77.7133 47.3367 78.96 51.26 78.96 55.88C78.96 62.6267 76.2467 67.8333 70.82 71.5C65.3933 75.1667 57.5467 77 47.28 77H5.7V-5.24521e-06H45.08C54.9067 -5.24521e-06 62.3867 1.83333 67.52 5.5C72.6533 9.09333 75.22 13.97 75.22 20.13C75.22 23.7967 74.3033 27.0967 72.47 30.03C70.71 32.89 68.18 35.1633 64.88 36.85ZM27.26 15.73V30.58H42.22C49.5533 30.58 53.22 28.0867 53.22 23.1C53.22 18.1867 49.5533 15.73 42.22 15.73H27.26ZM45.52 61.27C53.1467 61.27 56.96 58.6667 56.96 53.46C56.96 48.2533 53.1467 45.65 45.52 45.65H27.26V61.27H45.52ZM119.171 77.99C112.791 77.99 107.034 76.67 101.901 74.03C96.7677 71.39 92.7343 67.7233 89.801 63.03C86.941 58.3367 85.511 53.02 85.511 47.08C85.511 41.2133 86.941 35.9333 89.801 31.24C92.7343 26.5467 96.731 22.9167 101.791 20.35C106.924 17.71 112.718 16.39 119.171 16.39C125.624 16.39 131.418 17.71 136.551 20.35C141.684 22.9167 145.681 26.5467 148.541 31.24C151.401 35.86 152.831 41.14 152.831 47.08C152.831 53.02 151.401 58.3367 148.541 63.03C145.681 67.7233 141.684 71.39 136.551 74.03C131.418 76.67 125.624 77.99 119.171 77.99ZM119.171 61.38C122.838 61.38 125.844 60.1333 128.191 57.64C130.538 55.0733 131.711 51.5533 131.711 47.08C131.711 42.68 130.538 39.2333 128.191 36.74C125.844 34.2467 122.838 33 119.171 33C115.504 33 112.498 34.2467 110.151 36.74C107.804 39.2333 106.631 42.68 106.631 47.08C106.631 51.5533 107.804 55.0733 110.151 57.64C112.498 60.1333 115.504 61.38 119.171 61.38ZM192.433 77.99C186.053 77.99 180.296 76.67 175.163 74.03C170.029 71.39 165.996 67.7233 163.063 63.03C160.203 58.3367 158.773 53.02 158.773 47.08C158.773 41.2133 160.203 35.9333 163.063 31.24C165.996 26.5467 169.993 22.9167 175.053 20.35C180.186 17.71 185.979 16.39 192.433 16.39C198.886 16.39 204.679 17.71 209.813 20.35C214.946 22.9167 218.943 26.5467 221.803 31.24C224.663 35.86 226.093 41.14 226.093 47.08C226.093 53.02 224.663 58.3367 221.803 63.03C218.943 67.7233 214.946 71.39 209.813 74.03C204.679 76.67 198.886 77.99 192.433 77.99ZM192.433 61.38C196.099 61.38 199.106 60.1333 201.453 57.64C203.799 55.0733 204.973 51.5533 204.973 47.08C204.973 42.68 203.799 39.2333 201.453 36.74C199.106 34.2467 196.099 33 192.433 33C188.766 33 185.759 34.2467 183.413 36.74C181.066 39.2333 179.893 42.68 179.893 47.08C179.893 51.5533 181.066 55.0733 183.413 57.64C185.759 60.1333 188.766 61.38 192.433 61.38ZM257.444 77.99C252.458 77.99 247.544 77.44 242.704 76.34C237.864 75.1667 233.978 73.6633 231.044 71.83L237.314 57.53C240.028 59.2167 243.254 60.5733 246.994 61.6C250.734 62.5533 254.438 63.03 258.104 63.03C261.478 63.03 263.861 62.7 265.254 62.04C266.721 61.3067 267.454 60.28 267.454 58.96C267.454 57.64 266.574 56.7233 264.814 56.21C263.128 55.6233 260.414 55.0733 256.674 54.56C251.908 53.9733 247.838 53.2033 244.464 52.25C241.164 51.2967 238.304 49.5367 235.884 46.97C233.464 44.4033 232.254 40.81 232.254 36.19C232.254 32.3767 233.391 29.0033 235.664 26.07C237.938 23.0633 241.238 20.7167 245.564 19.03C249.964 17.27 255.208 16.39 261.294 16.39C265.621 16.39 269.911 16.83 274.164 17.71C278.418 18.59 281.974 19.8367 284.834 21.45L278.564 35.64C273.284 32.7067 267.564 31.24 261.404 31.24C258.104 31.24 255.684 31.6433 254.144 32.45C252.604 33.1833 251.834 34.1733 251.834 35.42C251.834 36.8133 252.678 37.8033 254.364 38.39C256.051 38.9033 258.838 39.4533 262.724 40.04C267.638 40.7733 271.708 41.6167 274.934 42.57C278.161 43.5233 280.948 45.2833 283.294 47.85C285.714 50.3433 286.924 53.8633 286.924 58.41C286.924 62.15 285.788 65.5233 283.514 68.53C281.241 71.4633 277.868 73.7733 273.394 75.46C268.994 77.1467 263.678 77.99 257.444 77.99ZM337.071 74.58C335.311 75.68 333.147 76.5233 330.581 77.11C328.087 77.6967 325.411 77.99 322.551 77.99C314.777 77.99 308.801 76.0833 304.621 72.27C300.441 68.4567 298.351 62.7733 298.351 55.22V35.2H289.661V19.58H298.351V4.06999H319.251V19.58H332.891V35.2H319.251V55C319.251 57.1267 319.801 58.8133 320.901 60.06C322.074 61.2333 323.614 61.82 325.521 61.82C327.941 61.82 330.067 61.1967 331.901 59.95L337.071 74.58ZM439.952 17.38L414.212 79.42C411.205 86.7533 407.538 91.8867 403.212 94.82C398.885 97.8267 393.605 99.33 387.372 99.33C384.218 99.33 381.028 98.8167 377.802 97.79C374.648 96.8367 372.082 95.5533 370.102 93.94L377.362 79.31C378.535 80.41 379.928 81.2533 381.542 81.84C383.228 82.5 384.915 82.83 386.602 82.83C388.582 82.83 390.195 82.4267 391.442 81.62C392.762 80.8133 393.862 79.53 394.742 77.77L369.222 17.38H390.672L405.302 53.79L420.042 17.38H439.952ZM473.663 77.99C467.283 77.99 461.527 76.67 456.393 74.03C451.26 71.39 447.227 67.7233 444.293 63.03C441.433 58.3367 440.003 53.02 440.003 47.08C440.003 41.2133 441.433 35.9333 444.293 31.24C447.227 26.5467 451.223 22.9167 456.283 20.35C461.417 17.71 467.21 16.39 473.663 16.39C480.117 16.39 485.91 17.71 491.043 20.35C496.177 22.9167 500.173 26.5467 503.033 31.24C505.893 35.86 507.323 41.14 507.323 47.08C507.323 53.02 505.893 58.3367 503.033 63.03C500.173 67.7233 496.177 71.39 491.043 74.03C485.91 76.67 480.117 77.99 473.663 77.99ZM473.663 61.38C477.33 61.38 480.337 60.1333 482.683 57.64C485.03 55.0733 486.203 51.5533 486.203 47.08C486.203 42.68 485.03 39.2333 482.683 36.74C480.337 34.2467 477.33 33 473.663 33C469.997 33 466.99 34.2467 464.643 36.74C462.297 39.2333 461.123 42.68 461.123 47.08C461.123 51.5533 462.297 55.0733 464.643 57.64C466.99 60.1333 469.997 61.38 473.663 61.38ZM579.705 17.38V77H559.795V70.62C557.595 73.04 554.955 74.8733 551.875 76.12C548.795 77.3667 545.532 77.99 542.085 77.99C534.385 77.99 528.225 75.7167 523.605 71.17C519.058 66.6233 516.785 59.8033 516.785 50.71V17.38H537.685V47.3C537.685 51.7733 538.528 55.0367 540.215 57.09C541.902 59.1433 544.358 60.17 547.585 60.17C550.885 60.17 553.562 59.0333 555.615 56.76C557.742 54.4133 558.805 50.8567 558.805 46.09V17.38H579.705ZM613.077 24.53C615.204 21.8167 617.954 19.8 621.327 18.48C624.774 17.0867 628.697 16.39 633.097 16.39V35.2C631.19 34.98 629.614 34.87 628.367 34.87C623.894 34.87 620.374 36.08 617.807 38.5C615.314 40.92 614.067 44.6233 614.067 49.61V77H593.167V17.38H613.077V24.53ZM35.18 191.99C28.58 191.99 22.6767 190.67 17.47 188.03C12.2633 185.39 8.19333 181.723 5.26 177.03C2.4 172.337 0.97 167.02 0.97 161.08C0.97 155.14 2.4 149.86 5.26 145.24C8.19333 140.547 12.2633 136.917 17.47 134.35C22.6767 131.71 28.58 130.39 35.18 130.39C41.9267 130.39 47.7567 131.857 52.67 134.79C57.5833 137.65 61.0667 141.647 63.12 146.78L46.95 155.03C44.2367 149.677 40.2767 147 35.07 147C31.33 147 28.2133 148.247 25.72 150.74C23.3 153.233 22.09 156.68 22.09 161.08C22.09 165.553 23.3 169.073 25.72 171.64C28.2133 174.133 31.33 175.38 35.07 175.38C40.2767 175.38 44.2367 172.703 46.95 167.35L63.12 175.6C61.0667 180.733 57.5833 184.767 52.67 187.7C47.7567 190.56 41.9267 191.99 35.18 191.99ZM100.265 191.99C93.8848 191.99 88.1281 190.67 82.9948 188.03C77.8614 185.39 73.8281 181.723 70.8948 177.03C68.0348 172.337 66.6048 167.02 66.6048 161.08C66.6048 155.213 68.0348 149.933 70.8948 145.24C73.8281 140.547 77.8248 136.917 82.8848 134.35C88.0181 131.71 93.8114 130.39 100.265 130.39C106.718 130.39 112.511 131.71 117.645 134.35C122.778 136.917 126.775 140.547 129.635 145.24C132.495 149.86 133.925 155.14 133.925 161.08C133.925 167.02 132.495 172.337 129.635 177.03C126.775 181.723 122.778 185.39 117.645 188.03C112.511 190.67 106.718 191.99 100.265 191.99ZM100.265 175.38C103.931 175.38 106.938 174.133 109.285 171.64C111.631 169.073 112.805 165.553 112.805 161.08C112.805 156.68 111.631 153.233 109.285 150.74C106.938 148.247 103.931 147 100.265 147C96.5981 147 93.5914 148.247 91.2448 150.74C88.8981 153.233 87.7248 156.68 87.7248 161.08C87.7248 165.553 88.8981 169.073 91.2448 171.64C93.5914 174.133 96.5981 175.38 100.265 175.38ZM221.266 130.39C228.6 130.39 234.43 132.59 238.756 136.99C243.156 141.39 245.356 148.027 245.356 156.9V191H224.456V160.31C224.456 156.13 223.65 153.05 222.036 151.07C220.496 149.09 218.296 148.1 215.436 148.1C212.283 148.1 209.753 149.2 207.846 151.4C205.94 153.6 204.986 156.937 204.986 161.41V191H184.086V160.31C184.086 152.17 181.08 148.1 175.066 148.1C171.84 148.1 169.273 149.2 167.366 151.4C165.46 153.6 164.506 156.937 164.506 161.41V191H143.606V131.38H163.516V137.65C165.716 135.23 168.32 133.433 171.326 132.26C174.406 131.013 177.743 130.39 181.336 130.39C185.516 130.39 189.256 131.16 192.556 132.7C195.856 134.24 198.533 136.587 200.586 139.74C202.933 136.733 205.903 134.423 209.496 132.81C213.09 131.197 217.013 130.39 221.266 130.39ZM296.058 130.39C301.485 130.39 306.398 131.673 310.798 134.24C315.271 136.733 318.791 140.327 321.358 145.02C323.998 149.64 325.318 155.03 325.318 161.19C325.318 167.35 323.998 172.777 321.358 177.47C318.791 182.09 315.271 185.683 310.798 188.25C306.398 190.743 301.485 191.99 296.058 191.99C289.091 191.99 283.555 189.9 279.448 185.72V212.34H258.548V131.38H278.458V137.32C282.345 132.7 288.211 130.39 296.058 130.39ZM291.658 175.38C295.325 175.38 298.331 174.133 300.678 171.64C303.025 169.073 304.198 165.59 304.198 161.19C304.198 156.79 303.025 153.343 300.678 150.85C298.331 148.283 295.325 147 291.658 147C287.991 147 284.985 148.283 282.638 150.85C280.291 153.343 279.118 156.79 279.118 161.19C279.118 165.59 280.291 169.073 282.638 171.64C284.985 174.133 287.991 175.38 291.658 175.38ZM359.153 130.39C369.053 130.39 376.607 132.663 381.813 137.21C387.02 141.683 389.623 148.577 389.623 157.89V191H370.153V183.3C367.147 189.093 361.28 191.99 352.553 191.99C347.933 191.99 343.937 191.183 340.563 189.57C337.19 187.957 334.623 185.793 332.863 183.08C331.177 180.293 330.333 177.14 330.333 173.62C330.333 167.973 332.497 163.61 336.823 160.53C341.15 157.377 347.823 155.8 356.843 155.8H368.723C368.357 149.493 364.14 146.34 356.073 146.34C353.213 146.34 350.317 146.817 347.383 147.77C344.45 148.65 341.957 149.897 339.903 151.51L332.863 137.32C336.163 135.12 340.16 133.433 344.853 132.26C349.62 131.013 354.387 130.39 359.153 130.39ZM358.383 178.79C360.803 178.79 362.93 178.203 364.763 177.03C366.597 175.857 367.917 174.133 368.723 171.86V166.69H359.703C353.617 166.69 350.573 168.707 350.573 172.74C350.573 174.573 351.27 176.04 352.663 177.14C354.057 178.24 355.963 178.79 358.383 178.79ZM441.645 130.39C449.052 130.39 454.992 132.59 459.465 136.99C464.012 141.39 466.285 148.027 466.285 156.9V191H445.385V160.31C445.385 152.17 442.122 148.1 435.595 148.1C432.002 148.1 429.105 149.273 426.905 151.62C424.779 153.967 423.715 157.487 423.715 162.18V191H402.815V131.38H422.725V137.87C425.072 135.45 427.859 133.617 431.085 132.37C434.312 131.05 437.832 130.39 441.645 130.39ZM541.143 131.38L515.403 193.42C512.396 200.753 508.73 205.887 504.403 208.82C500.076 211.827 494.796 213.33 488.563 213.33C485.41 213.33 482.22 212.817 478.993 211.79C475.84 210.837 473.273 209.553 471.293 207.94L478.553 193.31C479.726 194.41 481.12 195.253 482.733 195.84C484.42 196.5 486.106 196.83 487.793 196.83C489.773 196.83 491.386 196.427 492.633 195.62C493.953 194.813 495.053 193.53 495.933 191.77L470.413 131.38H491.863L506.493 167.79L521.233 131.38H541.143Z" fill="white"/>
</svg>
