<svg width="42" height="42" viewBox="0 0 42 42" fill="none" xmlns="http://www.w3.org/2000/svg">
<g id="marker-map">
<g id="ic_location_on_24px">
<mask id="mask0" mask-type="alpha" maskUnits="userSpaceOnUse" x="8" y="3" width="26" height="36">
<path id="Shape" fill-rule="evenodd" clip-rule="evenodd" d="M8.75 15.75C8.75 8.9775 14.2275 3.5 21 3.5C27.7725 3.5 33.25 8.9775 33.25 15.75C33.25 24.9375 21 38.5 21 38.5C21 38.5 8.75 24.9375 8.75 15.75ZM16.625 15.75C16.625 18.165 18.585 20.125 21 20.125C23.415 20.125 25.375 18.165 25.375 15.75C25.375 13.335 23.415 11.375 21 11.375C18.585 11.375 16.625 13.335 16.625 15.75Z" fill="white"/>
</mask>
<g mask="url(#mask0)">
<g id="c/grey/600 copy 6">
<rect id="Shape_2" width="42" height="42" fill="#00D2E5"/>
</g>
</g>
</g>
</g>
</svg>
