<svg width="619" height="90" viewBox="0 0 619 90" fill="none" xmlns="http://www.w3.org/2000/svg">
<path d="M70.22 89L70 48.19L50.2 81.41H40.52L20.83 49.29V89H0.7V12H18.63L45.69 56.44L72.09 12H90.02L90.24 89H70.22ZM134.581 89.99C128.201 89.99 122.445 88.67 117.311 86.03C112.178 83.39 108.145 79.7233 105.211 75.03C102.351 70.3367 100.921 65.02 100.921 59.08C100.921 53.2133 102.351 47.9333 105.211 43.24C108.145 38.5467 112.141 34.9167 117.201 32.35C122.335 29.71 128.128 28.39 134.581 28.39C141.035 28.39 146.828 29.71 151.961 32.35C157.095 34.9167 161.091 38.5467 163.951 43.24C166.811 47.86 168.241 53.14 168.241 59.08C168.241 65.02 166.811 70.3367 163.951 75.03C161.091 79.7233 157.095 83.39 151.961 86.03C146.828 88.67 141.035 89.99 134.581 89.99ZM134.581 73.38C138.248 73.38 141.255 72.1333 143.601 69.64C145.948 67.0733 147.121 63.5533 147.121 59.08C147.121 54.68 145.948 51.2333 143.601 48.74C141.255 46.2467 138.248 45 134.581 45C130.915 45 127.908 46.2467 125.561 48.74C123.215 51.2333 122.041 54.68 122.041 59.08C122.041 63.5533 123.215 67.0733 125.561 69.64C127.908 72.1333 130.915 73.38 134.581 73.38ZM197.833 36.53C199.96 33.8167 202.71 31.8 206.083 30.48C209.53 29.0867 213.453 28.39 217.853 28.39V47.2C215.946 46.98 214.37 46.87 213.123 46.87C208.65 46.87 205.13 48.08 202.563 50.5C200.07 52.92 198.823 56.6233 198.823 61.61V89H177.923V29.38H197.833V36.53ZM286.88 59.3C286.88 59.4467 286.77 61.17 286.55 64.47H243.21C244.09 67.55 245.777 69.9333 248.27 71.62C250.837 73.2333 254.027 74.04 257.84 74.04C260.7 74.04 263.157 73.6367 265.21 72.83C267.337 72.0233 269.464 70.7033 271.59 68.87L282.59 80.31C276.797 86.7633 268.327 89.99 257.18 89.99C250.214 89.99 244.09 88.67 238.81 86.03C233.53 83.39 229.424 79.7233 226.49 75.03C223.63 70.3367 222.2 65.02 222.2 59.08C222.2 53.2133 223.594 47.97 226.38 43.35C229.24 38.6567 233.164 34.99 238.15 32.35C243.137 29.71 248.747 28.39 254.98 28.39C260.92 28.39 266.31 29.6367 271.15 32.13C275.99 34.55 279.804 38.1067 282.59 42.8C285.45 47.42 286.88 52.92 286.88 59.3ZM255.09 43.24C251.864 43.24 249.15 44.1567 246.95 45.99C244.824 47.8233 243.467 50.3167 242.88 53.47H267.3C266.714 50.3167 265.32 47.8233 263.12 45.99C260.994 44.1567 258.317 43.24 255.09 43.24ZM350.198 89.99C345.212 89.99 340.298 89.44 335.458 88.34C330.618 87.1667 326.732 85.6633 323.798 83.83L330.068 69.53C332.782 71.2167 336.008 72.5733 339.748 73.6C343.488 74.5533 347.192 75.03 350.858 75.03C354.232 75.03 356.615 74.7 358.008 74.04C359.475 73.3067 360.208 72.28 360.208 70.96C360.208 69.64 359.328 68.7233 357.568 68.21C355.882 67.6233 353.168 67.0733 349.428 66.56C344.662 65.9733 340.592 65.2033 337.218 64.25C333.918 63.2967 331.058 61.5367 328.638 58.97C326.218 56.4033 325.008 52.81 325.008 48.19C325.008 44.3767 326.145 41.0033 328.418 38.07C330.692 35.0633 333.992 32.7167 338.318 31.03C342.718 29.27 347.962 28.39 354.048 28.39C358.375 28.39 362.665 28.83 366.918 29.71C371.172 30.59 374.728 31.8367 377.588 33.45L371.318 47.64C366.038 44.7067 360.318 43.24 354.158 43.24C350.858 43.24 348.438 43.6433 346.898 44.45C345.358 45.1833 344.588 46.1733 344.588 47.42C344.588 48.8133 345.432 49.8033 347.118 50.39C348.805 50.9033 351.592 51.4533 355.478 52.04C360.392 52.7733 364.462 53.6167 367.688 54.57C370.915 55.5233 373.702 57.2833 376.048 59.85C378.468 62.3433 379.678 65.8633 379.678 70.41C379.678 74.15 378.542 77.5233 376.268 80.53C373.995 83.4633 370.622 85.7733 366.148 87.46C361.748 89.1467 356.432 89.99 350.198 89.99ZM415.745 68.1L409.585 74.37V89H388.685V7.38H409.585V50.17L430.925 29.38H455.675L430.925 54.9L457.765 89H432.465L415.745 68.1ZM463.88 29.38H484.78V89H463.88V29.38ZM474.33 22.78C470.517 22.78 467.437 21.7167 465.09 19.59C462.743 17.4633 461.57 14.8233 461.57 11.67C461.57 8.51666 462.743 5.87666 465.09 3.75C467.437 1.62333 470.517 0.559998 474.33 0.559998C478.143 0.559998 481.223 1.58666 483.57 3.64C485.917 5.62 487.09 8.18666 487.09 11.34C487.09 14.64 485.917 17.39 483.57 19.59C481.223 21.7167 478.143 22.78 474.33 22.78ZM498.362 7.38H519.262V89H498.362V7.38ZM532.845 7.38H553.745V89H532.845V7.38ZM588.997 89.99C584.011 89.99 579.097 89.44 574.257 88.34C569.417 87.1667 565.531 85.6633 562.597 83.83L568.867 69.53C571.581 71.2167 574.807 72.5733 578.547 73.6C582.287 74.5533 585.991 75.03 589.657 75.03C593.031 75.03 595.414 74.7 596.807 74.04C598.274 73.3067 599.007 72.28 599.007 70.96C599.007 69.64 598.127 68.7233 596.367 68.21C594.681 67.6233 591.967 67.0733 588.227 66.56C583.461 65.9733 579.391 65.2033 576.017 64.25C572.717 63.2967 569.857 61.5367 567.437 58.97C565.017 56.4033 563.807 52.81 563.807 48.19C563.807 44.3767 564.944 41.0033 567.217 38.07C569.491 35.0633 572.791 32.7167 577.117 31.03C581.517 29.27 586.761 28.39 592.847 28.39C597.174 28.39 601.464 28.83 605.717 29.71C609.971 30.59 613.527 31.8367 616.387 33.45L610.117 47.64C604.837 44.7067 599.117 43.24 592.957 43.24C589.657 43.24 587.237 43.6433 585.697 44.45C584.157 45.1833 583.387 46.1733 583.387 47.42C583.387 48.8133 584.231 49.8033 585.917 50.39C587.604 50.9033 590.391 51.4533 594.277 52.04C599.191 52.7733 603.261 53.6167 606.487 54.57C609.714 55.5233 612.501 57.2833 614.847 59.85C617.267 62.3433 618.477 65.8633 618.477 70.41C618.477 74.15 617.341 77.5233 615.067 80.53C612.794 83.4633 609.421 85.7733 604.947 87.46C600.547 89.1467 595.231 89.99 588.997 89.99Z" fill="white"/>
</svg>
